<svg xmlns="http://www.w3.org/2000/svg" viewBox="0 0 1299.67 1236.34" aria-hidden="true">
  <path fill="#df1a22" d="M958.26,461.86l21.66.16c3.99.26,7.71,1.03,11.13,2.98,12.27,109.16-5.35,222.57-56.5,320.13-57.72,110.1-157.26,196.24-285.82,202.69l-24.82,104.77c-3.71,15.68-12.25,28.76-23.59,39.67l-75.34,45.58-102.36,58.49,62.96-271.65c-49.38-21.12-84.45-59.87-110.34-106.4-15.68-27.97-27.09-57.05-37.24-87.54-17.01-51.13-26.6-103.21-28.78-157.09l-.03-58.85c3.85-85.64,24.82-171.07,67.95-245.46s107.58-130.91,186.08-164.3c37.13-15.79,76.05-26.76,115.49-32.89-74.99,26.01-143.55,62.79-199.06,119.26-48.47,49.31-82.14,110.64-97.46,178.26-16.19,71.49-12.92,146.28,9.25,216.12,23.02,69.67,67.24,136.36,132.09,174.56l53.66-231.48,10.46-43.42-21.68-12.52-31.93-23.67-36.42-26.11c8.91-2.34,16.77-2.74,25.54-2.7l80.78.45c13.66-53.83,25.41-107.47,35.06-162.3,11.51-41.51,33.48-79.43,64.47-109.03,40.59-38.13,89.57-52.61,144.89-45l-74.08,317.06,184,.24ZM786.59,736.52c25.92-33.34,43.18-71.09,50.38-112.67l-101.57.05-44.35,186.08c38.61-16.13,70.29-41.55,95.54-73.46Z"/>
  <path fill="#df1a22" d="M1026.73,570.63c46.91-62.85,92.78-139.22,95.85-220.01,1.6-42.18-10.45-82.3-34.99-116.42-31.57-43.9-77.72-74.35-126.26-97.4-31.33-14.88-63.31-25.9-96.59-35.89-38.07-11.43-75.86-19.25-115.4-23.83-85.56-9.91-173.71-9.15-259.93-4.2-61.33,3.52-122.19,9.25-183.31,16.49C203.14,101.57,101.62,117.97,0,137.29c18.8-9.89,37.53-16.94,57.3-23.97,40.85-14.54,82.18-26.88,124.41-37.85,121.16-31.46,244.37-53.64,369.09-66.14,153.31-15.35,364.89-19.01,505.43,47.14,75.2,35.39,163.74,86.98,211.47,155.9,49.59,71.6,41.28,148.84-23.46,206.9-20.19,18.1-40.26,35.18-62.9,50.23l-72.64,48.27-80.3,52c-.35.62-.73,1.25-1.67.87Z"/>
</svg>
